<svg width="14" height="14" viewBox="0 0 14 14" fill="none" xmlns="http://www.w3.org/2000/svg">
<path d="M13.8065 12.7841L11.2156 10.196C13.1979 7.72953 13.0066 4.08189 10.7461 1.84119C9.5637 0.660049 7.98134 0 6.29465 0C4.60796 0 3.04299 0.660049 1.84319 1.84119C0.660764 3.02233 0 4.60298 0 6.28784C0 7.97271 0.660764 9.53598 1.84319 10.7345C3.02561 11.9156 4.60796 12.5757 6.29465 12.5757C7.72051 12.5757 9.11159 12.0893 10.2245 11.2035L12.8154 13.7916C12.9545 13.9305 13.1283 14 13.3022 14C13.4935 14 13.6674 13.9305 13.7891 13.7916C14.0673 13.4963 14.0673 13.062 13.8065 12.7841ZM11.1982 6.27047C11.1982 7.5732 10.694 8.80645 9.77236 9.72705C8.85077 10.6476 7.61618 11.1514 6.31204 11.1514C5.0079 11.1514 3.77331 10.6476 2.85172 9.72705C1.93013 8.80645 1.42586 7.5732 1.42586 6.27047C1.42586 4.96774 1.93013 3.73449 2.85172 2.8139C3.77331 1.8933 5.0079 1.38958 6.31204 1.38958C7.61618 1.38958 8.85077 1.8933 9.77236 2.8139C10.694 3.73449 11.1982 4.96774 11.1982 6.27047Z" fill="#A1A2AF"/>
</svg>
