<svg width="283" height="44" fill="none" xmlns="http://www.w3.org/2000/svg"><path d="M83.466 15.066c-.545-2.993-2.976-6.816-9.4-6.816-4.936 0-9.22 3.39-9.22 8.223 0 3.787 2.65 6.672 7.006 7.502l3.52.649c1.706.324 2.758 1.262 2.758 2.56 0 1.587-1.379 2.67-3.629 2.67-3.52 0-5.117-2.056-5.335-4.4l-5.263 1.262c.363 3.606 3.412 8.187 10.526 8.187 6.133 0 9.508-4.076 9.508-8.08 0-3.642-2.54-6.78-7.44-7.681l-3.448-.65c-1.778-.324-2.54-1.226-2.54-2.452 0-1.406 1.379-2.74 3.52-2.74 3.121 0 4.102 2.019 4.283 3.209l5.154-1.443zM91.033 23.83c.109-1.659 1.234-2.885 2.976-2.885 1.996 0 2.94 1.334 2.94 3.102V34.36h5.516V23.11c0-3.931-2.105-7.141-6.823-7.141-1.597 0-3.484.505-4.61 1.623V8.25h-5.516v26.111h5.517v-10.53zM109.46 23.253c.109-1.334 1.27-3.03 3.593-3.03 2.613 0 3.557 1.66 3.63 3.03h-7.223zm7.622 4.653c-.508 1.406-1.633 2.344-3.63 2.344-2.141 0-3.992-1.443-4.101-3.462h12.558c.036-.108.109-.938.109-1.695 0-5.77-3.448-9.197-9.037-9.197-4.682 0-9.001 3.679-9.001 9.45 0 6.022 4.428 9.557 9.4 9.557 4.573 0 7.44-2.597 8.311-5.699l-4.609-1.298zM129.262 34.361V8.25h-5.517v26.111h5.517zM138.921 11.207h-4.936v2.309c0 1.659-.907 2.92-2.795 2.92h-.907v4.798h3.194v7.682c0 3.57 2.286 5.77 6.025 5.77 1.742 0 2.649-.397 2.867-.505v-4.544a6.85 6.85 0 01-1.452.18c-1.198 0-1.996-.396-1.996-1.875v-6.708h3.52v-4.797h-3.52v-5.23zM148.497 23.253c.109-1.334 1.271-3.03 3.593-3.03 2.614 0 3.557 1.66 3.63 3.03h-7.223zm7.622 4.653c-.508 1.406-1.633 2.344-3.629 2.344-2.142 0-3.993-1.443-4.101-3.462h12.557c.037-.108.109-.938.109-1.695 0-5.77-3.448-9.197-9.037-9.197-4.682 0-9.001 3.679-9.001 9.45 0 6.022 4.428 9.557 9.4 9.557 4.573 0 7.44-2.597 8.311-5.699l-4.609-1.298zM174.251 16.437c-.363-.108-.907-.18-1.451-.18-1.452 0-3.739.577-4.682 2.596v-2.416h-5.336V34.36h5.517v-7.826c0-3.57 1.996-4.869 4.21-4.869.545 0 1.125.037 1.742.18v-5.41zM183.086 8.791v25.57h10.38c4.863 0 8.057-3.065 8.057-7.249 0-3.318-2.25-5.446-4.573-5.987 2.105-.685 3.775-2.849 3.775-5.482 0-3.93-2.94-6.852-8.021-6.852h-9.618zm5.589 10.243v-5.518h3.049c2.25 0 3.375 1.082 3.375 2.74 0 1.732-1.306 2.778-3.303 2.778h-3.121zm0 10.675v-5.987h3.593c2.25 0 3.557 1.226 3.557 2.994 0 1.839-1.343 2.993-3.557 2.993h-3.593zM214.888 34.361h5.299a27.706 27.706 0 01-.182-3.21V16.438h-5.516v10.206c0 1.804-1.162 3.066-3.013 3.066-1.96 0-2.903-1.37-2.903-3.102v-10.17h-5.517v11.325c0 3.822 2.468 6.996 6.86 6.996 1.814 0 3.883-.649 4.827-2.2 0 .47.072 1.479.145 1.803zM240.756 8.25h-5.445v9.593c-.435-.685-1.778-1.839-4.863-1.839-5.117 0-8.747 4.003-8.747 9.341 0 5.518 3.847 9.413 8.929 9.413 2.177 0 3.992-.901 4.827-2.128 0 .722.108 1.515.145 1.731h5.299a34.265 34.265 0 01-.145-3.21V8.25zm-13.502 17.131c0-2.993 1.924-4.436 4.065-4.436 2.141 0 4.065 1.443 4.065 4.436 0 2.957-1.924 4.472-4.065 4.472-2.141 0-4.065-1.515-4.065-4.472zM261.66 8.25h-5.444v9.593c-.436-.685-1.779-1.839-4.863-1.839-5.118 0-8.747 4.003-8.747 9.341 0 5.518 3.847 9.413 8.928 9.413 2.178 0 3.992-.901 4.827-2.128 0 .722.109 1.515.145 1.731h5.299c-.036-.396-.145-1.586-.145-3.21V8.25zm-13.501 17.131c0-2.993 1.923-4.436 4.065-4.436 2.141 0 4.064 1.443 4.064 4.436 0 2.957-1.923 4.472-4.064 4.472-2.142 0-4.065-1.515-4.065-4.472zM271.894 41.25L283 16.437h-5.843l-3.993 9.593-4.391-9.593h-6.17l7.585 15.508-4.101 9.305h5.807z" fill="#000121"/><path d="M15.384 5.64L4.167 14.924a4.727 4.727 0 00-1.605 4.642l4.26 19.757A4.792 4.792 0 0012.482 43l25.294-5.301a4.727 4.727 0 003.655-5.63l-4.26-19.757a4.792 4.792 0 00-3.38-3.597l-14.076-3.98a4.76 4.76 0 00-4.331.907z" fill="#00E0FF" fill-opacity=".8"/><path d="M28.7 4.743L14.63 8.718a4.786 4.786 0 00-3.38 3.596l-4.247 19.76a4.733 4.733 0 003.657 5.632l25.29 5.315a4.786 4.786 0 005.658-3.674l4.248-19.76a4.733 4.733 0 00-1.607-4.644L33.03 5.653a4.76 4.76 0 00-4.33-.91z" fill="#0038FF" fill-opacity=".64"/><path d="M21.95 1.16L9.02 7.94a4.76 4.76 0 00-2.548 4.215v20.197a4.76 4.76 0 004.76 4.759H37.09a4.76 4.76 0 004.759-4.76V12.156a4.76 4.76 0 00-2.549-4.215L26.371 1.16a4.76 4.76 0 00-4.42 0z" fill="#0001AF" fill-opacity=".72"/><path d="M20.771 14.259c1.102 0 2.034-.88 2.034-2.01 0-1.09-.932-2.011-2.034-2.011a2.023 2.023 0 00-2.034 2.01c0 1.131.89 2.011 2.034 2.011zm-2.034 2.68c0-1.088-.932-2.01-2.034-2.01a2.023 2.023 0 00-2.034 2.01c0 1.132.89 2.011 2.034 2.011 1.102 0 2.034-.88 2.034-2.01zm8.814-2.68c1.102 0 2.034-.88 2.034-2.01 0-1.09-.932-2.011-2.034-2.011a2.023 2.023 0 00-2.034 2.01c0 1.131.89 2.011 2.034 2.011zm4.068.67a2.023 2.023 0 00-2.034 2.01c0 1.132.89 2.011 2.034 2.011 1.101 0 2.034-.88 2.034-2.01 0-1.09-.933-2.01-2.034-2.01zm-1.399 6.577c-1.101-.629-1.991-2.556-2.839-4.105-.678-1.173-1.949-1.802-3.22-1.802-1.314 0-2.585.629-3.263 1.802-.847 1.55-1.695 3.476-2.839 4.105-1.229.712-2.034 2.01-2.034 3.476 0 2.22 1.78 4.021 4.068 4.021 2.161.084 3.051-1.34 4.068-1.34.975 0 1.864 1.424 4.068 1.34 2.246 0 4.068-1.8 4.068-4.02 0-1.467-.848-2.765-2.077-3.477z" fill="#fff"/></svg>